<!-- The BeCurrent mark reduced to its C, taken from the same artwork the
     wordmark is trimmed from. Generated by scripts/brand/build-wordmark.py. -->
<svg xmlns="http://www.w3.org/2000/svg" xmlns:xlink="http://www.w3.org/1999/xlink" width="64" height="64" viewBox="0 0 64 64" role="img" aria-label="BeCurrent"><defs><g/><clipPath id="bea6182877"><path d="M 416.503906 525 L 641.503906 525 L 641.503906 975 L 416.503906 975 Z M 416.503906 525 " clip-rule="nonzero"/></clipPath><clipPath id="697c96d368"><path d="M 641.503906 525 C 518.949219 525 416.503906 627.445312 416.503906 750 C 416.503906 872.554688 518.949219 975 641.503906 975 L 641.503906 850.066406 C 587 850.066406 541.4375 804.503906 541.4375 750 C 541.4375 695.496094 587 649.933594 641.503906 649.933594 Z M 641.503906 525 " clip-rule="nonzero"/></clipPath><clipPath id="38fb06fe95"><path d="M 0.503906 0 L 225.503906 0 L 225.503906 450 L 0.503906 450 Z M 0.503906 0 " clip-rule="nonzero"/></clipPath><clipPath id="115ed34642"><path d="M 225.503906 0 C 102.949219 0 0.503906 102.445312 0.503906 225 C 0.503906 347.554688 102.949219 450 225.503906 450 L 225.503906 325.066406 C 171 325.066406 125.4375 279.503906 125.4375 225 C 125.4375 170.496094 171 124.933594 225.503906 124.933594 Z M 225.503906 0 " clip-rule="nonzero"/></clipPath><clipPath id="6f0759ccfc"><rect x="0" width="226" y="0" height="450"/></clipPath><clipPath id="95996baf81"><path d="M 633.816406 525 L 732.328125 525 L 732.328125 649.621094 L 633.816406 649.621094 Z M 633.816406 525 " clip-rule="nonzero"/></clipPath><clipPath id="a3fcb6247a"><path d="M 0.816406 0 L 99.328125 0 L 99.328125 124.621094 L 0.816406 124.621094 Z M 0.816406 0 " clip-rule="nonzero"/></clipPath><clipPath id="97a361c704"><rect x="0" width="100" y="0" height="125"/></clipPath><clipPath id="74c19d7b6e"><path d="M 633.816406 850.378906 L 732.328125 850.378906 L 732.328125 975 L 633.816406 975 Z M 633.816406 850.378906 " clip-rule="nonzero"/></clipPath><clipPath id="24ceb7a040"><path d="M 0.816406 0.378906 L 99.328125 0.378906 L 99.328125 125 L 0.816406 125 Z M 0.816406 0.378906 " clip-rule="nonzero"/></clipPath><clipPath id="a2244420ec"><rect x="0" width="100" y="0" height="125"/></clipPath></defs><rect width="64" height="64" rx="13" fill="#ce1400"/><g transform="translate(17.97 12.00) scale(0.0889) translate(-416.50 -525.00)"><g clip-path="url(#bea6182877)"><g clip-path="url(#697c96d368)"><g transform="matrix(1, 0, 0, 1, 416, 525)"><g clip-path="url(#6f0759ccfc)"><g clip-path="url(#38fb06fe95)"><g clip-path="url(#115ed34642)"><path fill="#FFFFFF" d="M 0.503906 450 L 0.503906 0 L 225.503906 0 L 225.503906 450 Z M 0.503906 450 " fill-opacity="1" fill-rule="nonzero"/></g></g></g></g></g></g><g clip-path="url(#95996baf81)"><g transform="matrix(1, 0, 0, 1, 633, 525)"><g clip-path="url(#97a361c704)"><g clip-path="url(#a3fcb6247a)"><path fill="#FFFFFF" d="M 0.816406 0 L 99.328125 0 L 99.328125 124.679688 L 0.816406 124.679688 Z M 0.816406 0 " fill-opacity="1" fill-rule="nonzero"/></g></g></g></g><g clip-path="url(#74c19d7b6e)"><g transform="matrix(1, 0, 0, 1, 633, 850)"><g clip-path="url(#a2244420ec)"><g clip-path="url(#24ceb7a040)"><path fill="#FFFFFF" d="M 0.816406 0.378906 L 99.328125 0.378906 L 99.328125 125.058594 L 0.816406 125.058594 Z M 0.816406 0.378906 " fill-opacity="1" fill-rule="nonzero"/></g></g></g></g></g></svg>
